<mxfile host="app.diagrams.net" modified="2024-06-11T20:26:25.220Z" agent="Mozilla/5.0 (Windows NT 10.0; Win64; x64; rv:126.0) Gecko/20100101 Firefox/126.0" etag="D2FExB1yAhjsIMVxlp2V" version="24.5.3" type="github">
  <diagram id="C5RBs43oDa-KdzZeNtuy" name="Page-1">
    <mxGraphModel dx="1195" dy="582" grid="1" gridSize="10" guides="1" tooltips="1" connect="1" arrows="1" fold="1" page="1" pageScale="1" pageWidth="827" pageHeight="1169" math="0" shadow="0">
      <root>
        <mxCell id="WIyWlLk6GJQsqaUBKTNV-0" />
        <mxCell id="WIyWlLk6GJQsqaUBKTNV-1" parent="WIyWlLk6GJQsqaUBKTNV-0" />
        <mxCell id="ENQ89kSXqirUxtNGe3qm-10" value="&lt;div&gt;&amp;lt;&amp;lt;interface&amp;gt;&amp;gt;&lt;/div&gt;&lt;div&gt;ReprodutorMusica&lt;/div&gt;" style="swimlane;fontStyle=1;align=center;verticalAlign=middle;childLayout=stackLayout;horizontal=1;startSize=26;horizontalStack=0;resizeParent=1;resizeParentMax=0;resizeLast=0;collapsible=1;marginBottom=0;whiteSpace=wrap;html=1;strokeWidth=1;perimeterSpacing=2;labelPosition=center;verticalLabelPosition=middle;" vertex="1" parent="WIyWlLk6GJQsqaUBKTNV-1">
          <mxGeometry x="90" y="80" width="210" height="108" as="geometry" />
        </mxCell>
        <mxCell id="ENQ89kSXqirUxtNGe3qm-12" value="" style="line;strokeWidth=1;fillColor=none;align=left;verticalAlign=middle;spacingTop=-1;spacingLeft=3;spacingRight=3;rotatable=0;labelPosition=right;points=[];portConstraint=eastwest;strokeColor=inherit;" vertex="1" parent="ENQ89kSXqirUxtNGe3qm-10">
          <mxGeometry y="26" width="210" height="24" as="geometry" />
        </mxCell>
        <mxCell id="ENQ89kSXqirUxtNGe3qm-13" value="&lt;div&gt;+ selecionarMusica: void()&lt;/div&gt;&lt;div&gt;+ tocarMusica: void()&lt;/div&gt;&lt;div&gt;+ pausarMusica: void()&lt;br&gt;&lt;/div&gt;" style="text;strokeColor=none;fillColor=none;align=left;verticalAlign=top;spacingLeft=4;spacingRight=4;overflow=hidden;rotatable=0;points=[[0,0.5],[1,0.5]];portConstraint=eastwest;whiteSpace=wrap;html=1;" vertex="1" parent="ENQ89kSXqirUxtNGe3qm-10">
          <mxGeometry y="50" width="210" height="58" as="geometry" />
        </mxCell>
        <mxCell id="ENQ89kSXqirUxtNGe3qm-14" value="&lt;div&gt;&amp;lt;&amp;lt;interface&amp;gt;&amp;gt;&lt;/div&gt;&lt;div&gt;AparelhoTelefonico&lt;/div&gt;" style="swimlane;fontStyle=1;align=center;verticalAlign=middle;childLayout=stackLayout;horizontal=1;startSize=26;horizontalStack=0;resizeParent=1;resizeParentMax=0;resizeLast=0;collapsible=1;marginBottom=0;whiteSpace=wrap;html=1;labelPosition=center;verticalLabelPosition=middle;" vertex="1" parent="WIyWlLk6GJQsqaUBKTNV-1">
          <mxGeometry x="350" y="80" width="190" height="110" as="geometry" />
        </mxCell>
        <mxCell id="ENQ89kSXqirUxtNGe3qm-15" value="" style="line;strokeWidth=1;fillColor=none;align=left;verticalAlign=middle;spacingTop=-1;spacingLeft=3;spacingRight=3;rotatable=0;labelPosition=right;points=[];portConstraint=eastwest;strokeColor=inherit;" vertex="1" parent="ENQ89kSXqirUxtNGe3qm-14">
          <mxGeometry y="26" width="190" height="8" as="geometry" />
        </mxCell>
        <mxCell id="ENQ89kSXqirUxtNGe3qm-16" value="&lt;div&gt;+ realizarLigacao: void()&lt;/div&gt;&lt;div&gt;+ atenderLigacao: void()&lt;/div&gt;&lt;div&gt;+ iniciarCorreioVoz: void()&lt;br&gt;&lt;/div&gt;" style="text;strokeColor=none;fillColor=none;align=left;verticalAlign=top;spacingLeft=4;spacingRight=4;overflow=hidden;rotatable=0;points=[[0,0.5],[1,0.5]];portConstraint=eastwest;whiteSpace=wrap;html=1;" vertex="1" parent="ENQ89kSXqirUxtNGe3qm-14">
          <mxGeometry y="34" width="190" height="76" as="geometry" />
        </mxCell>
        <mxCell id="ENQ89kSXqirUxtNGe3qm-17" value="&lt;div&gt;&amp;lt;&amp;lt;interface&amp;gt;&amp;gt;&lt;/div&gt;&lt;div&gt;NavegadorDeInternet&lt;/div&gt;" style="swimlane;fontStyle=1;align=center;verticalAlign=middle;childLayout=stackLayout;horizontal=1;startSize=26;horizontalStack=0;resizeParent=1;resizeParentMax=0;resizeLast=0;collapsible=1;marginBottom=0;whiteSpace=wrap;html=1;labelPosition=center;verticalLabelPosition=middle;" vertex="1" parent="WIyWlLk6GJQsqaUBKTNV-1">
          <mxGeometry x="580" y="80" width="190" height="110" as="geometry" />
        </mxCell>
        <mxCell id="ENQ89kSXqirUxtNGe3qm-18" value="" style="line;strokeWidth=1;fillColor=none;align=left;verticalAlign=middle;spacingTop=-1;spacingLeft=3;spacingRight=3;rotatable=0;labelPosition=right;points=[];portConstraint=eastwest;strokeColor=inherit;" vertex="1" parent="ENQ89kSXqirUxtNGe3qm-17">
          <mxGeometry y="26" width="190" height="8" as="geometry" />
        </mxCell>
        <mxCell id="ENQ89kSXqirUxtNGe3qm-19" value="&lt;div&gt;+ exibirPagina: void()&lt;/div&gt;&lt;div&gt;+ adicionarNovaAba: void()&lt;/div&gt;&lt;div&gt;+ atualizarPagina: void()&lt;br&gt;&lt;/div&gt;" style="text;strokeColor=none;fillColor=none;align=left;verticalAlign=top;spacingLeft=4;spacingRight=4;overflow=hidden;rotatable=0;points=[[0,0.5],[1,0.5]];portConstraint=eastwest;whiteSpace=wrap;html=1;" vertex="1" parent="ENQ89kSXqirUxtNGe3qm-17">
          <mxGeometry y="34" width="190" height="76" as="geometry" />
        </mxCell>
        <mxCell id="ENQ89kSXqirUxtNGe3qm-49" style="edgeStyle=orthogonalEdgeStyle;rounded=0;orthogonalLoop=1;jettySize=auto;html=1;exitX=0.25;exitY=0;exitDx=0;exitDy=0;entryX=0.75;entryY=1;entryDx=0;entryDy=0;" edge="1" parent="WIyWlLk6GJQsqaUBKTNV-1" source="ENQ89kSXqirUxtNGe3qm-20" target="ENQ89kSXqirUxtNGe3qm-10">
          <mxGeometry relative="1" as="geometry">
            <Array as="points">
              <mxPoint x="393" y="310" />
              <mxPoint x="249" y="310" />
            </Array>
          </mxGeometry>
        </mxCell>
        <mxCell id="ENQ89kSXqirUxtNGe3qm-20" value="SmartPhone" style="swimlane;fontStyle=1;align=center;verticalAlign=top;childLayout=stackLayout;horizontal=1;startSize=26;horizontalStack=0;resizeParent=1;resizeParentMax=0;resizeLast=0;collapsible=1;marginBottom=0;whiteSpace=wrap;html=1;" vertex="1" parent="WIyWlLk6GJQsqaUBKTNV-1">
          <mxGeometry x="340" y="380" width="210" height="60" as="geometry" />
        </mxCell>
        <mxCell id="ENQ89kSXqirUxtNGe3qm-21" value="" style="line;strokeWidth=1;fillColor=none;align=left;verticalAlign=middle;spacingTop=-1;spacingLeft=3;spacingRight=3;rotatable=0;labelPosition=right;points=[];portConstraint=eastwest;strokeColor=inherit;" vertex="1" parent="ENQ89kSXqirUxtNGe3qm-20">
          <mxGeometry y="26" width="210" height="34" as="geometry" />
        </mxCell>
        <mxCell id="ENQ89kSXqirUxtNGe3qm-25" value="&lt;div&gt;IPod&lt;/div&gt;&lt;div&gt;&lt;br&gt;&lt;/div&gt;" style="swimlane;fontStyle=1;align=center;verticalAlign=top;childLayout=stackLayout;horizontal=1;startSize=26;horizontalStack=0;resizeParent=1;resizeParentMax=0;resizeLast=0;collapsible=1;marginBottom=0;whiteSpace=wrap;html=1;" vertex="1" parent="WIyWlLk6GJQsqaUBKTNV-1">
          <mxGeometry x="150" y="240" width="80" height="60" as="geometry" />
        </mxCell>
        <mxCell id="ENQ89kSXqirUxtNGe3qm-26" value="" style="line;strokeWidth=1;fillColor=none;align=left;verticalAlign=middle;spacingTop=-1;spacingLeft=3;spacingRight=3;rotatable=0;labelPosition=right;points=[];portConstraint=eastwest;strokeColor=inherit;" vertex="1" parent="ENQ89kSXqirUxtNGe3qm-25">
          <mxGeometry y="26" width="80" height="34" as="geometry" />
        </mxCell>
        <mxCell id="ENQ89kSXqirUxtNGe3qm-29" style="edgeStyle=orthogonalEdgeStyle;rounded=0;orthogonalLoop=1;jettySize=auto;html=1;exitX=0.5;exitY=0;exitDx=0;exitDy=0;entryX=0.376;entryY=1.015;entryDx=0;entryDy=0;entryPerimeter=0;" edge="1" parent="WIyWlLk6GJQsqaUBKTNV-1">
          <mxGeometry relative="1" as="geometry">
            <mxPoint x="211.04" y="239.13" as="sourcePoint" />
            <mxPoint x="190.00000000000003" y="187.99999999999994" as="targetPoint" />
          </mxGeometry>
        </mxCell>
        <mxCell id="ENQ89kSXqirUxtNGe3qm-30" value="Telefone" style="swimlane;fontStyle=1;align=center;verticalAlign=top;childLayout=stackLayout;horizontal=1;startSize=26;horizontalStack=0;resizeParent=1;resizeParentMax=0;resizeLast=0;collapsible=1;marginBottom=0;whiteSpace=wrap;html=1;" vertex="1" parent="WIyWlLk6GJQsqaUBKTNV-1">
          <mxGeometry x="400" y="230" width="80" height="60" as="geometry" />
        </mxCell>
        <mxCell id="ENQ89kSXqirUxtNGe3qm-31" value="" style="line;strokeWidth=1;fillColor=none;align=left;verticalAlign=middle;spacingTop=-1;spacingLeft=3;spacingRight=3;rotatable=0;labelPosition=right;points=[];portConstraint=eastwest;strokeColor=inherit;" vertex="1" parent="ENQ89kSXqirUxtNGe3qm-30">
          <mxGeometry y="26" width="80" height="34" as="geometry" />
        </mxCell>
        <mxCell id="ENQ89kSXqirUxtNGe3qm-33" value="Google" style="swimlane;fontStyle=1;align=center;verticalAlign=top;childLayout=stackLayout;horizontal=1;startSize=26;horizontalStack=0;resizeParent=1;resizeParentMax=0;resizeLast=0;collapsible=1;marginBottom=0;whiteSpace=wrap;html=1;" vertex="1" parent="WIyWlLk6GJQsqaUBKTNV-1">
          <mxGeometry x="635" y="250" width="80" height="60" as="geometry" />
        </mxCell>
        <mxCell id="ENQ89kSXqirUxtNGe3qm-34" value="" style="line;strokeWidth=1;fillColor=none;align=left;verticalAlign=middle;spacingTop=-1;spacingLeft=3;spacingRight=3;rotatable=0;labelPosition=right;points=[];portConstraint=eastwest;strokeColor=inherit;" vertex="1" parent="ENQ89kSXqirUxtNGe3qm-33">
          <mxGeometry y="26" width="80" height="34" as="geometry" />
        </mxCell>
        <mxCell id="ENQ89kSXqirUxtNGe3qm-35" style="edgeStyle=orthogonalEdgeStyle;rounded=0;orthogonalLoop=1;jettySize=auto;html=1;exitX=0.5;exitY=0;exitDx=0;exitDy=0;entryX=0.495;entryY=1;entryDx=0;entryDy=0;entryPerimeter=0;" edge="1" parent="WIyWlLk6GJQsqaUBKTNV-1" source="ENQ89kSXqirUxtNGe3qm-33" target="ENQ89kSXqirUxtNGe3qm-19">
          <mxGeometry relative="1" as="geometry" />
        </mxCell>
        <mxCell id="ENQ89kSXqirUxtNGe3qm-50" style="edgeStyle=orthogonalEdgeStyle;rounded=0;orthogonalLoop=1;jettySize=auto;html=1;exitX=0.5;exitY=0;exitDx=0;exitDy=0;entryX=0.912;entryY=0.996;entryDx=0;entryDy=0;entryPerimeter=0;" edge="1" parent="WIyWlLk6GJQsqaUBKTNV-1" source="ENQ89kSXqirUxtNGe3qm-20" target="ENQ89kSXqirUxtNGe3qm-16">
          <mxGeometry relative="1" as="geometry">
            <Array as="points">
              <mxPoint x="445" y="320" />
              <mxPoint x="523" y="320" />
            </Array>
          </mxGeometry>
        </mxCell>
        <mxCell id="ENQ89kSXqirUxtNGe3qm-51" style="edgeStyle=orthogonalEdgeStyle;rounded=0;orthogonalLoop=1;jettySize=auto;html=1;exitX=0.5;exitY=0;exitDx=0;exitDy=0;entryX=0.474;entryY=0.996;entryDx=0;entryDy=0;entryPerimeter=0;" edge="1" parent="WIyWlLk6GJQsqaUBKTNV-1" source="ENQ89kSXqirUxtNGe3qm-30" target="ENQ89kSXqirUxtNGe3qm-16">
          <mxGeometry relative="1" as="geometry" />
        </mxCell>
        <mxCell id="ENQ89kSXqirUxtNGe3qm-55" style="edgeStyle=orthogonalEdgeStyle;rounded=0;orthogonalLoop=1;jettySize=auto;html=1;exitX=1;exitY=0.5;exitDx=0;exitDy=0;entryX=0.158;entryY=1.007;entryDx=0;entryDy=0;entryPerimeter=0;" edge="1" parent="WIyWlLk6GJQsqaUBKTNV-1" source="ENQ89kSXqirUxtNGe3qm-20" target="ENQ89kSXqirUxtNGe3qm-19">
          <mxGeometry relative="1" as="geometry" />
        </mxCell>
      </root>
    </mxGraphModel>
  </diagram>
</mxfile>
